<?xml version="1.0" encoding="UTF-8" standalone="no"?>
<!-- Created with Inkscape (http://www.inkscape.org/) -->
<svg
   xmlns:dc="http://purl.org/dc/elements/1.1/"
   xmlns:cc="http://creativecommons.org/ns#"
   xmlns:rdf="http://www.w3.org/1999/02/22-rdf-syntax-ns#"
   xmlns:svg="http://www.w3.org/2000/svg"
   xmlns="http://www.w3.org/2000/svg"
   xmlns:xlink="http://www.w3.org/1999/xlink"
   xmlns:sodipodi="http://sodipodi.sourceforge.net/DTD/sodipodi-0.dtd"
   xmlns:inkscape="http://www.inkscape.org/namespaces/inkscape"
   width="640"
   height="480"
   id="svg3208"
   sodipodi:version="0.32"
   inkscape:version="0.46"
   version="1.0"
   sodipodi:docname="openlp-default-dualdisplay.svg"
   inkscape:output_extension="org.inkscape.output.svg.inkscape">
  <defs
     id="defs3210">
    <filter
       inkscape:collect="always"
       id="filter4005">
      <feGaussianBlur
         inkscape:collect="always"
         stdDeviation="4.333215"
         id="feGaussianBlur4007" />
    </filter>
    <linearGradient
       id="linearGradient3208">
      <stop
         style="stop-color:#ffffff;stop-opacity:0.25098041;"
         offset="0"
         id="stop3210" />
      <stop
         style="stop-color:#ffffff;stop-opacity:0;"
         offset="1"
         id="stop3212" />
    </linearGradient>
    <linearGradient
       id="linearGradient6359">
      <stop
         style="stop-color:#000d26;stop-opacity:1;"
         offset="0"
         id="stop6361" />
      <stop
         style="stop-color:#507fda;stop-opacity:1;"
         offset="1"
         id="stop6363" />
    </linearGradient>
    <linearGradient
       id="linearGradient3195">
      <stop
         style="stop-color:#cdcdff;stop-opacity:1;"
         offset="0"
         id="stop3197" />
      <stop
         style="stop-color:#ebebff;stop-opacity:1;"
         offset="1"
         id="stop3199" />
    </linearGradient>
    <filter
       inkscape:collect="always"
       id="filter6926">
      <feGaussianBlur
         inkscape:collect="always"
         stdDeviation="3.5771872"
         id="feGaussianBlur6928" />
    </filter>
    <inkscape:perspective
       sodipodi:type="inkscape:persp3d"
       inkscape:vp_x="0 : 526.18109 : 1"
       inkscape:vp_y="0 : 1000 : 0"
       inkscape:vp_z="744.09448 : 526.18109 : 1"
       inkscape:persp3d-origin="372.04724 : 350.78739 : 1"
       id="perspective3216" />
    <filter
       inkscape:collect="always"
       id="filter4203"
       x="-0.0062387524"
       width="1.0124775"
       y="-0.15678384"
       height="1.3135677">
      <feGaussianBlur
         inkscape:collect="always"
         stdDeviation="1.5096395"
         id="feGaussianBlur4205" />
    </filter>
    <linearGradient
       inkscape:collect="always"
       xlink:href="#linearGradient3195"
       id="linearGradient4257"
       gradientUnits="userSpaceOnUse"
       x1="117.59262"
       y1="384.05795"
       x2="418.20981"
       y2="436.03787" />
    <linearGradient
       inkscape:collect="always"
       xlink:href="#linearGradient3208"
       id="linearGradient4284"
       gradientUnits="userSpaceOnUse"
       gradientTransform="matrix(0.5557126,0,0,0.6014434,52.878388,26.36294)"
       x1="470.25891"
       y1="276.68851"
       x2="469.44925"
       y2="104.30029" />
    <linearGradient
       inkscape:collect="always"
       xlink:href="#linearGradient6359"
       id="linearGradient4287"
       gradientUnits="userSpaceOnUse"
       x1="815.75"
       y1="480.55844"
       x2="201.10622"
       y2="371.85938"
       gradientTransform="matrix(0.4996316,0,0,0.4996316,81.506404,23.922274)" />
  </defs>
  <sodipodi:namedview
     id="base"
     pagecolor="#ffffff"
     bordercolor="#666666"
     borderopacity="1.0"
     gridtolerance="10000"
     guidetolerance="10"
     objecttolerance="10"
     inkscape:pageopacity="0.0"
     inkscape:pageshadow="2"
     inkscape:zoom="1.56875"
     inkscape:cx="320"
     inkscape:cy="233.85153"
     inkscape:document-units="px"
     inkscape:current-layer="layer1"
     showgrid="false"
     width="940px"
     inkscape:window-width="1280"
     inkscape:window-height="958"
     inkscape:window-x="-4"
     inkscape:window-y="-4" />
  <metadata
     id="metadata3213">
    <rdf:RDF>
      <cc:Work
         rdf:about="">
        <dc:format>image/svg+xml</dc:format>
        <dc:type
           rdf:resource="http://purl.org/dc/dcmitype/StillImage" />
      </cc:Work>
    </rdf:RDF>
  </metadata>
  <g
     inkscape:label="Layer 1"
     inkscape:groupmode="layer"
     id="layer1">
    <g
       id="g4335">
      <path
         sodipodi:type="arc"
         style="fill:#000000;fill-opacity:1;fill-rule:nonzero;stroke:none;stroke-width:5.00028753;stroke-linecap:butt;stroke-miterlimit:4;stroke-dasharray:none;stroke-opacity:1;display:inline;filter:url(#filter6926)"
         id="path3204"
         sodipodi:cx="475.31134"
         sodipodi:cy="395.26932"
         sodipodi:rx="357.71872"
         sodipodi:ry="357.71872"
         d="M 833.03006,395.26932 A 357.71872,357.71872 0 1 1 117.59262,395.26932 A 357.71872,357.71872 0 1 1 833.03006,395.26932 z"
         transform="matrix(0.4892111,0,0,0.4892111,84.981623,16.35095)"
         inkscape:export-filename="/home/raoul/openlp-logo-0.2.png"
         inkscape:export-xdpi="90"
         inkscape:export-ydpi="90" />
      <path
         transform="matrix(0.4892111,0,0,0.4892111,84.981623,16.35095)"
         d="M 833.03006,395.26932 A 357.71872,357.71872 0 1 1 117.59262,395.26932 A 357.71872,357.71872 0 1 1 833.03006,395.26932 z"
         sodipodi:ry="357.71872"
         sodipodi:rx="357.71872"
         sodipodi:cy="395.26932"
         sodipodi:cx="475.31134"
         id="path3206"
         style="fill:#051e52;fill-opacity:1;fill-rule:nonzero;stroke:none;stroke-width:5.00028753;stroke-linecap:butt;stroke-miterlimit:4;stroke-dasharray:none;stroke-opacity:1;display:inline"
         sodipodi:type="arc"
         inkscape:export-filename="/home/raoul/openlp-logo-0.2.png"
         inkscape:export-xdpi="90"
         inkscape:export-ydpi="90" />
      <path
         sodipodi:type="arc"
         style="fill:url(#linearGradient4257);fill-opacity:1;fill-rule:nonzero;stroke:none;stroke-width:5.00028753;stroke-linecap:butt;stroke-miterlimit:4;stroke-dasharray:none;stroke-opacity:1;display:inline"
         id="path3208"
         sodipodi:cx="475.31134"
         sodipodi:cy="395.26932"
         sodipodi:rx="357.71872"
         sodipodi:ry="357.71872"
         d="M 833.03006,395.26932 A 357.71872,357.71872 0 1 1 117.59262,395.26932 A 357.71872,357.71872 0 1 1 833.03006,395.26932 z"
         transform="matrix(0.4844149,0,0,0.4844149,87.261306,18.246736)"
         inkscape:export-filename="/home/raoul/openlp-logo-0.2.png"
         inkscape:export-xdpi="90"
         inkscape:export-ydpi="90" />
      <path
         style="fill:url(#linearGradient4287);fill-opacity:1;fill-rule:nonzero;stroke:none;stroke-width:5;stroke-linecap:butt;stroke-miterlimit:4;stroke-dasharray:none;stroke-opacity:1;display:inline"
         d="M 317.50427,38.146161 C 289.95456,38.146161 263.9191,44.655333 240.84204,56.210966 L 364.3135,155.26293 L 484.0065,251.28588 C 487.32257,237.97549 489.08088,224.055 489.08088,209.72278 C 489.08088,115.01691 412.21014,38.146162 317.50427,38.146161 z M 197.45216,87.203739 C 191.33851,93.195216 185.67847,99.642637 180.51153,106.4864 L 347.37287,188.76948 L 469.73577,249.1156 L 347.88811,176.65341 L 197.45216,87.203739 z M 155.56118,152.95213 C 152.7793,160.87961 150.57364,169.07097 148.97228,177.48092 L 336.28729,223.7593 L 461.13274,254.61155 L 336.31852,213.07968 L 155.56118,152.95213 z M 147.14551,230.05154 C 148.14622,238.51516 149.75063,246.78897 151.93885,254.83014 L 327.18463,259.82646 L 460.19593,263.63615 L 331.21291,249.78698 L 147.14551,230.05154 z M 465.36399,271.66148 L 328.32441,286.29132 L 173.423,302.826 C 177.99257,309.87987 183.05773,316.58335 188.5837,322.87372 L 324.23368,297.76723 L 465.36399,271.66148 z M 475.93433,275.65853 L 331.49395,323.34212 L 229.50665,357.0048 C 255.2432,372.42482 285.33914,381.28377 317.50427,381.28378 C 388.85034,381.28378 450.07456,337.66845 475.93433,275.65853 z"
         id="path3210"
         inkscape:export-filename="/home/raoul/openlp-logo-0.2.png"
         inkscape:export-xdpi="90"
         inkscape:export-ydpi="90" />
      <path
         style="fill:url(#linearGradient4284);fill-opacity:1;fill-rule:nonzero;stroke:none;stroke-width:4.80000019;stroke-linecap:butt;stroke-miterlimit:4;stroke-dasharray:none;stroke-opacity:1;display:inline"
         d="M 317.50427,38.146161 C 289.95456,38.146161 263.9191,44.655333 240.84204,56.210966 L 364.3135,155.26293 L 404.61191,187.59846 C 434.6307,183.86026 461.79776,178.22379 484.70911,171.15746 C 467.19476,94.998806 398.95232,38.146162 317.50427,38.146161 z M 197.45216,87.203739 C 191.33851,93.195216 185.67847,99.642637 180.51153,106.4864 L 347.37287,188.76948 L 353.75879,191.9234 C 359.82695,191.63189 365.81668,191.26566 371.72991,190.83046 L 347.88811,176.65341 L 197.45216,87.203739 z M 155.56118,152.95213 C 153.5201,158.76858 151.7871,164.73129 150.3775,170.81396 C 183.06204,181.02563 224.53781,188.28421 270.72626,191.26763 L 155.56118,152.95213 z"
         id="path3212" />
      <g
         style="fill:#ffffff;fill-opacity:1;filter:url(#filter4005)"
         id="g2762"
         transform="matrix(0.6503605,0,0,0.6503605,-272.58365,-486.18544)">
        <path
           style="fill:#ffffff;fill-opacity:1"
           id="path2764"
           d="M 801.444,1038.553 L 817.061,1038.553 C 835.923,1038.553 845.557,1048.997 845.557,1064.514 C 845.557,1079.726 835.923,1090.373 817.061,1090.373 L 808.745,1090.373 L 808.745,1107.512 L 801.444,1107.512 L 801.444,1038.553 L 801.444,1038.553 z M 816.655,1083.984 C 832.172,1083.984 837.952,1075.872 837.952,1064.513 C 837.952,1053.154 832.172,1045.042 816.655,1045.042 L 808.745,1045.042 L 808.745,1083.983 L 816.655,1083.983 L 816.655,1083.984 z" />
        <path
           style="fill:#ffffff;fill-opacity:1"
           id="path2766"
           d="M 852.858,1038.553 L 894.842,1038.553 L 894.842,1045.043 L 860.158,1045.043 L 860.158,1077.393 L 891.089,1077.393 L 891.089,1083.782 L 860.158,1083.782 L 860.158,1101.022 L 896.261,1101.022 L 896.261,1107.512 L 852.858,1107.512 L 852.858,1038.553 z" />
        <path
           style="fill:#ffffff;fill-opacity:1"
           id="path2768"
           d="M 913.197,1059.545 C 911.27,1057.212 908.43,1053.155 908.43,1053.155 C 908.43,1053.155 909.038,1058.023 909.038,1060.965 L 909.038,1107.512 L 902.142,1107.512 L 902.142,1037.843 L 903.359,1037.843 L 944.532,1086.52 C 946.459,1088.853 948.791,1091.683 948.791,1091.683 C 948.791,1091.683 948.791,1088.041 948.791,1085.101 L 948.791,1038.553 L 955.586,1038.553 L 955.586,1108.222 L 954.369,1108.222 L 913.197,1059.545 z" />
        <path
           style="fill:#ffffff;fill-opacity:1"
           id="path2770"
           d="M 677.015,1070.032 C 677.015,1035.196 703.268,1011.468 735.579,1011.468 C 767.89,1011.468 794.143,1035.197 794.143,1070.032 C 794.143,1104.867 767.89,1128.596 735.579,1128.596 C 703.268,1128.596 677.015,1104.868 677.015,1070.032 z M 787.075,1070.032 C 787.075,1040.077 765.03,1017.694 735.579,1017.694 C 706.128,1017.694 684.083,1040.077 684.083,1070.032 C 684.083,1099.988 706.128,1122.37 735.579,1122.37 C 765.03,1122.37 787.075,1099.988 787.075,1070.032 z" />
        <path
           style="fill:#ffffff;fill-opacity:1"
           id="path2772"
           d="M 967.521,1012.814 L 991.082,1012.814 L 991.082,1106.551 L 1042.915,1106.551 L 1042.915,1127.25 L 967.521,1127.25 L 967.521,1012.814 z" />
        <path
           style="fill:#ffffff;fill-opacity:1"
           id="path2774"
           d="M 1054.85,1012.814 L 1086.489,1012.814 C 1118.464,1012.814 1137.649,1029.475 1137.649,1057.074 C 1137.649,1084.674 1118.295,1101.166 1086.489,1101.166 L 1078.411,1101.166 L 1078.411,1127.251 L 1054.85,1127.251 L 1054.85,1012.814 z M 1085.815,1080.467 C 1105,1080.467 1113.414,1072.726 1113.414,1057.074 C 1113.414,1041.255 1104.663,1033.513 1085.815,1033.513 L 1078.41,1033.513 L 1078.41,1080.466 L 1085.815,1080.466 L 1085.815,1080.467 z" />
      </g>
      <g
         style="fill:#000d26;fill-opacity:1"
         transform="matrix(0.6503605,0,0,0.6503605,-272.58365,-486.18544)"
         id="g3221">
        <path
           style="fill:#000d26;fill-opacity:1"
           d="M 801.444,1038.553 L 817.061,1038.553 C 835.923,1038.553 845.557,1048.997 845.557,1064.514 C 845.557,1079.726 835.923,1090.373 817.061,1090.373 L 808.745,1090.373 L 808.745,1107.512 L 801.444,1107.512 L 801.444,1038.553 L 801.444,1038.553 z M 816.655,1083.984 C 832.172,1083.984 837.952,1075.872 837.952,1064.513 C 837.952,1053.154 832.172,1045.042 816.655,1045.042 L 808.745,1045.042 L 808.745,1083.983 L 816.655,1083.983 L 816.655,1083.984 z"
           id="path3223" />
        <path
           style="fill:#000d26;fill-opacity:1"
           d="M 852.858,1038.553 L 894.842,1038.553 L 894.842,1045.043 L 860.158,1045.043 L 860.158,1077.393 L 891.089,1077.393 L 891.089,1083.782 L 860.158,1083.782 L 860.158,1101.022 L 896.261,1101.022 L 896.261,1107.512 L 852.858,1107.512 L 852.858,1038.553 z"
           id="path3225" />
        <path
           style="fill:#000d26;fill-opacity:1"
           d="M 913.197,1059.545 C 911.27,1057.212 908.43,1053.155 908.43,1053.155 C 908.43,1053.155 909.038,1058.023 909.038,1060.965 L 909.038,1107.512 L 902.142,1107.512 L 902.142,1037.843 L 903.359,1037.843 L 944.532,1086.52 C 946.459,1088.853 948.791,1091.683 948.791,1091.683 C 948.791,1091.683 948.791,1088.041 948.791,1085.101 L 948.791,1038.553 L 955.586,1038.553 L 955.586,1108.222 L 954.369,1108.222 L 913.197,1059.545 z"
           id="path3227" />
        <path
           style="fill:#000d26;fill-opacity:1"
           d="M 677.015,1070.032 C 677.015,1035.196 703.268,1011.468 735.579,1011.468 C 767.89,1011.468 794.143,1035.197 794.143,1070.032 C 794.143,1104.867 767.89,1128.596 735.579,1128.596 C 703.268,1128.596 677.015,1104.868 677.015,1070.032 z M 787.075,1070.032 C 787.075,1040.077 765.03,1017.694 735.579,1017.694 C 706.128,1017.694 684.083,1040.077 684.083,1070.032 C 684.083,1099.988 706.128,1122.37 735.579,1122.37 C 765.03,1122.37 787.075,1099.988 787.075,1070.032 z"
           id="path3229" />
        <path
           style="fill:#000d26;fill-opacity:1"
           d="M 967.521,1012.814 L 991.082,1012.814 L 991.082,1106.551 L 1042.915,1106.551 L 1042.915,1127.25 L 967.521,1127.25 L 967.521,1012.814 z"
           id="path3335" />
        <path
           style="fill:#000d26;fill-opacity:1"
           d="M 1054.85,1012.814 L 1086.489,1012.814 C 1118.464,1012.814 1137.649,1029.475 1137.649,1057.074 C 1137.649,1084.674 1118.295,1101.166 1086.489,1101.166 L 1078.411,1101.166 L 1078.411,1127.251 L 1054.85,1127.251 L 1054.85,1012.814 z M 1085.815,1080.467 C 1105,1080.467 1113.414,1072.726 1113.414,1057.074 C 1113.414,1041.255 1104.663,1033.513 1085.815,1033.513 L 1078.41,1033.513 L 1078.41,1080.466 L 1085.815,1080.466 L 1085.815,1080.467 z"
           id="path3337" />
      </g>
    </g>
    <g
       id="g4356">
      <g
         style="fill:#000000;fill-opacity:1;stroke:#000000;stroke-opacity:1;filter:url(#filter4203)"
         transform="translate(4.4621514,71.394422)"
         id="g3339">
        <path
           style="fill:#000000;fill-opacity:1;stroke:#000000;stroke-opacity:1"
           id="path3025"
           d="M 22.673731,370.71529 C 22.673731,364.06085 27.839035,359.16086 34.328304,359.16086 C 40.81705,359.16086 45.981829,364.06085 45.981829,370.71529 C 45.981829,377.36973 40.81705,382.26971 34.328304,382.26971 C 27.839035,382.26971 22.673731,377.37025 22.673731,370.71529 z M 41.214502,370.71529 C 41.214502,366.51058 38.433386,363.29898 34.328304,363.29898 C 30.222698,363.29898 27.441583,366.51058 27.441583,370.71529 C 27.441583,374.91999 30.222698,378.1316 34.328304,378.1316 C 38.433386,378.1316 41.214502,374.91999 41.214502,370.71529 z" />
        <path
           style="fill:#000000;fill-opacity:1;stroke:#000000;stroke-opacity:1"
           id="path3027"
           d="M 49.922267,359.45869 L 56.146219,359.45869 C 62.436763,359.45869 66.21046,362.73583 66.21046,368.16541 C 66.21046,373.59498 62.403205,376.83961 56.146219,376.83961 L 54.556936,376.83961 L 54.556936,381.97136 L 49.922267,381.97136 L 49.922267,359.45869 z M 56.013561,372.76809 C 59.787782,372.76809 61.443133,371.2454 61.443133,368.16593 C 61.443133,365.05343 59.721715,363.53074 56.013561,363.53074 L 54.556936,363.53074 L 54.556936,372.76809 L 56.013561,372.76809 L 56.013561,372.76809 z" />
        <path
           style="fill:#000000;fill-opacity:1;stroke:#000000;stroke-opacity:1"
           id="path3013"
           d="M 70.150962,359.45843 L 85.049122,359.45843 L 85.049122,363.53048 L 74.785631,363.53048 L 74.785631,370.68199 L 83.824257,370.68199 L 83.824257,374.65494 L 74.785631,374.65494 L 74.785631,377.89957 L 85.512641,377.89957 L 85.512641,381.97162 L 70.150962,381.97162 L 70.150962,359.45843 z" />
        <path
           style="fill:#000000;fill-opacity:1;stroke:#000000;stroke-opacity:1"
           id="path3015"
           d="M 209.80292,381.97162 L 204.43941,381.97162 L 200.73126,376.27726 C 200.3013,376.34332 199.83778,376.37636 199.40729,376.37636 L 197.81801,376.37636 L 197.81801,381.97162 L 193.18334,381.97162 L 193.18334,359.45843 L 199.40729,359.45843 C 205.69784,359.45843 209.47153,362.4713 209.47153,367.96694 C 209.47153,371.47637 207.91581,373.69487 205.13469,374.95277 L 209.80292,381.97162 z M 199.27463,372.33734 C 203.04886,372.33734 204.70421,371.14604 204.70421,367.96694 C 204.70421,364.7889 202.98279,363.53048 199.27463,363.53048 L 197.81801,363.53048 L 197.81801,372.33734 L 199.27463,372.33734 z" />
        <path
           style="fill:#000000;fill-opacity:1;stroke:#000000;stroke-opacity:1"
           id="path3017"
           d="M 534.09128,363.53048 L 527.6686,363.53048 L 527.6686,359.45843 L 545.14968,359.45843 L 545.14968,363.53048 L 538.72647,363.53048 L 538.72647,381.97162 L 534.09128,381.97162 L 534.09128,363.53048 z" />
        <path
           style="fill:#000000;fill-opacity:1;stroke:#000000;stroke-opacity:1"
           id="path3019"
           d="M 295.01444,374.82011 L 286.47289,359.45843 L 291.60463,359.45843 L 295.57706,366.70904 C 296.43803,368.2978 297.3981,370.97982 297.3981,370.97982 C 297.3981,370.97982 298.2921,368.33136 299.15308,366.70904 L 302.96086,359.45843 L 307.69462,359.45843 L 299.68319,374.48925 L 299.68319,381.97162 L 295.01496,381.97162 L 295.01496,374.82011 L 295.01444,374.82011 z" />
        <path
           style="fill:#000000;fill-opacity:1;stroke:#000000;stroke-opacity:1"
           id="path3021"
           d="M 171.03352,373.67756 L 171.03352,359.30951 L 175.66819,359.30951 L 175.66819,373.41329 C 175.66819,376.69044 177.0923,377.94834 180.17124,377.94834 C 183.21715,377.94834 184.60771,376.69044 184.60771,373.41329 L 184.60771,359.30951 L 189.2429,359.30951 L 189.2429,373.67756 C 189.2429,379.37193 185.30247,382.12054 180.17124,382.12054 C 174.97291,382.12001 171.03352,379.37193 171.03352,373.67756 z" />
        <path
           style="fill:#000000;fill-opacity:1;stroke:#000000;stroke-opacity:1"
           id="path3023"
           d="M 332.19508,359.45843 L 336.82975,359.45843 L 336.82975,381.97162 L 332.19508,381.97162 L 332.19508,359.45843 z" />
        <path
           style="fill:#000000;fill-opacity:1;stroke:#000000;stroke-opacity:1"
           id="path3031"
           d="M 123.72152,377.51864 L 127.49574,375.3337 C 128.48885,376.95602 129.77978,378.14785 132.06434,378.14785 C 133.98448,378.14785 135.20987,377.18778 135.20987,375.86329 C 135.20987,374.27453 133.95198,373.71138 131.83311,372.78435 L 130.67431,372.28779 C 127.33005,370.8642 125.11208,369.07672 125.11208,365.30249 C 125.11208,361.8261 127.76106,359.17712 131.89917,359.17712 C 134.84546,359.17712 136.96433,360.20378 138.48754,362.88527 L 134.87849,365.20287 C 134.08359,363.77928 133.22314,363.21666 131.89865,363.21666 C 130.54112,363.21666 129.68068,364.07763 129.68068,365.20287 C 129.68068,366.59343 130.54165,367.15657 132.52786,368.01702 L 133.68666,368.51357 C 137.62657,370.20196 139.84454,371.92337 139.84454,375.79722 C 139.84454,379.96889 136.5674,382.25293 132.16397,382.25293 C 127.86016,382.25293 125.07904,380.20013 123.72152,377.51864 z" />
        <path
           style="fill:#000000;fill-opacity:1;stroke:#000000;stroke-opacity:1"
           id="path3041"
           d="M 465.62309,377.8828 L 469.39678,375.59876 C 470.12562,376.88969 470.78734,377.98242 472.37663,377.98242 C 473.89984,377.98242 474.85991,377.38624 474.85991,375.06865 L 474.85991,359.30951 L 479.49511,359.30951 L 479.49511,375.13471 C 479.49511,379.9356 476.68096,382.12054 472.57535,382.12054 C 468.8672,382.12054 466.71529,380.20039 465.62309,377.8828 z" />
        <path
           style="fill:#000000;fill-opacity:1;stroke:#000000;stroke-opacity:1"
           id="path3045"
           d="M 269.79773,359.45843 L 274.4324,359.45843 L 274.4324,377.89905 L 284.62982,377.89905 L 284.62982,381.97162 L 269.79773,381.97162 L 269.79773,359.45843 z" />
        <path
           style="fill:#000000;fill-opacity:1;stroke:#000000;stroke-opacity:1"
           id="path3051"
           d="M 213.74336,370.69825 C 213.74336,364.04381 218.87458,359.17686 225.33082,359.17686 C 229.40339,359.17686 232.31664,360.63296 234.33641,363.77849 L 230.79342,366.29481 C 229.73372,364.57287 227.9132,363.34801 225.33082,363.34801 C 221.25824,363.34801 218.51068,366.49354 218.51068,370.69825 C 218.51068,374.90295 221.25824,378.11455 225.33082,378.11455 C 228.24459,378.11455 229.86638,376.724 231.12481,374.80385 L 234.73386,377.28662 C 232.78016,380.33305 229.66818,382.25319 225.33082,382.25319 C 218.8751,382.25267 213.74336,377.35321 213.74336,370.69825 z" />
        <path
           style="fill:#000000;fill-opacity:1;stroke:#000000;stroke-opacity:1"
           id="path3057"
           d="M 96.140027,371.50967 C 95.014786,370.44997 93.458536,368.43072 93.458536,368.43072 C 93.458536,368.43072 93.789921,370.91349 93.789921,372.53581 L 93.789921,381.97136 L 89.45308,381.97136 L 89.45308,359.25996 L 89.916599,359.25996 L 101.2723,369.92038 C 102.36503,370.94652 103.92075,372.99933 103.92075,372.99933 C 103.92075,372.99933 103.62293,370.45049 103.62293,368.89424 L 103.62293,359.45869 L 107.95977,359.45869 L 107.95977,382.17009 L 107.49625,382.17009 L 96.140027,371.50967 z" />
        <path
           style="fill:#000000;fill-opacity:1;stroke:#000000;stroke-opacity:1"
           d="M 143.78498,370.71503 C 143.78498,364.06059 148.95028,359.1606 155.43955,359.1606 C 161.9283,359.1606 167.09308,364.06059 167.09308,370.71503 C 167.09308,377.36946 161.9283,382.26945 155.43955,382.26945 C 148.95028,382.26945 143.78498,377.36999 143.78498,370.71503 z M 162.32575,370.71503 C 162.32575,366.51032 159.54464,363.29872 155.43955,363.29872 C 151.33395,363.29872 148.55283,366.51032 148.55283,370.71503 C 148.55283,374.91973 151.33395,378.13133 155.43955,378.13133 C 159.54464,378.13133 162.32575,374.91973 162.32575,370.71503 z"
           id="path3231" />
        <path
           style="fill:#000000;fill-opacity:1;stroke:#000000;stroke-opacity:1"
           d="M 238.6743,359.45843 L 253.57246,359.45843 L 253.57246,363.53048 L 243.30897,363.53048 L 243.30897,370.68199 L 252.34759,370.68199 L 252.34759,374.65494 L 243.30897,374.65494 L 243.30897,377.89957 L 254.03598,377.89957 L 254.03598,381.97162 L 238.6743,381.97162 L 238.6743,359.45843 z"
           id="path3233" />
        <path
           style="fill:#000000;fill-opacity:1;stroke:#000000;stroke-opacity:1"
           d="M 328.25464,381.97162 L 322.89114,381.97162 L 319.18298,376.27726 C 318.75302,376.34332 318.2895,376.37636 317.85901,376.37636 L 316.26973,376.37636 L 316.26973,381.97162 L 311.63506,381.97162 L 311.63506,359.45843 L 317.85901,359.45843 C 324.14956,359.45843 327.92326,362.4713 327.92326,367.96694 C 327.92326,371.47637 326.36753,373.69487 323.58641,374.95277 L 328.25464,381.97162 z M 317.72636,372.33734 C 321.50058,372.33734 323.15593,371.14604 323.15593,367.96694 C 323.15593,364.7889 321.43451,363.53048 317.72636,363.53048 L 316.26973,363.53048 L 316.26973,372.33734 L 317.72636,372.33734 z"
           id="path3235" />
        <path
           style="fill:#000000;fill-opacity:1;stroke:#000000;stroke-opacity:1"
           d="M 365.70113,377.51864 L 369.47535,375.3337 C 370.46845,376.95602 371.75938,378.14785 374.04395,378.14785 C 375.96409,378.14785 377.18948,377.18778 377.18948,375.86329 C 377.18948,374.27453 375.93158,373.71138 373.81271,372.78435 L 372.65391,372.28779 C 369.30965,370.8642 367.09168,369.07672 367.09168,365.30249 C 367.09168,361.8261 369.74066,359.17712 373.87878,359.17712 C 376.82506,359.17712 378.94393,360.20378 380.46715,362.88527 L 376.8581,365.20287 C 376.06319,363.77928 375.20275,363.21666 373.87826,363.21666 C 372.52073,363.21666 371.66028,364.07763 371.66028,365.20287 C 371.66028,366.59343 372.52126,367.15657 374.50747,368.01702 L 375.66627,368.51357 C 379.60618,370.20196 381.82415,371.92337 381.82415,375.79722 C 381.82415,379.96889 378.54701,382.25293 374.14357,382.25293 C 369.83976,382.25293 367.05865,380.20013 365.70113,377.51864 z"
           id="path3237" />
        <path
           style="fill:#000000;fill-opacity:1;stroke:#000000;stroke-opacity:1"
           d="M 340.77019,370.69825 C 340.77019,364.04381 345.90141,359.17686 352.35764,359.17686 C 356.43022,359.17686 359.34347,360.63296 361.36323,363.77849 L 357.82025,366.29481 C 356.76055,364.57287 354.94003,363.34801 352.35764,363.34801 C 348.28507,363.34801 345.53751,366.49354 345.53751,370.69825 C 345.53751,374.90295 348.28507,378.11455 352.35764,378.11455 C 355.27142,378.11455 356.89321,376.724 358.15163,374.80385 L 361.76069,377.28662 C 359.80698,380.33305 356.69501,382.25319 352.35764,382.25319 C 345.90193,382.25267 340.77019,377.35321 340.77019,370.69825 z"
           id="path3239" />
        <path
           style="fill:#000000;fill-opacity:1;stroke:#000000;stroke-opacity:1"
           d="M 397.5859,359.45869 L 403.80985,359.45869 C 410.1004,359.45869 413.8741,362.73583 413.8741,368.16541 C 413.8741,373.59498 410.06684,376.83961 403.80985,376.83961 L 402.22057,376.83961 L 402.22057,381.97136 L 397.5859,381.97136 L 397.5859,359.45869 z M 403.6772,372.76809 C 407.45142,372.76809 409.10677,371.2454 409.10677,368.16593 C 409.10677,365.05343 407.38535,363.53074 403.6772,363.53074 L 402.22057,363.53074 L 402.22057,372.76809 L 403.6772,372.76809 L 403.6772,372.76809 z"
           id="path3241" />
        <path
           style="fill:#000000;fill-opacity:1;stroke:#000000;stroke-opacity:1"
           d="M 483.43554,359.45843 L 498.33371,359.45843 L 498.33371,363.53048 L 488.07021,363.53048 L 488.07021,370.68199 L 497.10884,370.68199 L 497.10884,374.65494 L 488.07021,374.65494 L 488.07021,377.89957 L 498.79723,377.89957 L 498.79723,381.97162 L 483.43554,381.97162 L 483.43554,359.45843 z"
           id="path3243" />
        <path
           style="fill:#000000;fill-opacity:1;stroke:#000000;stroke-opacity:1"
           d="M 434.43411,381.97162 L 429.07061,381.97162 L 425.36245,376.27726 C 424.93249,376.34332 424.46897,376.37636 424.03849,376.37636 L 422.4492,376.37636 L 422.4492,381.97162 L 417.81453,381.97162 L 417.81453,359.45843 L 424.03849,359.45843 C 430.32903,359.45843 434.10273,362.4713 434.10273,367.96694 C 434.10273,371.47637 432.547,373.69487 429.76589,374.95277 L 434.43411,381.97162 z M 423.90583,372.33734 C 427.68005,372.33734 429.3354,371.14604 429.3354,367.96694 C 429.3354,364.7889 427.61398,363.53048 423.90583,363.53048 L 422.4492,363.53048 L 422.4492,372.33734 L 423.90583,372.33734 z"
           id="path3245" />
        <path
           style="fill:#000000;fill-opacity:1;stroke:#000000;stroke-opacity:1"
           d="M 549.09011,359.45843 L 553.72478,359.45843 L 553.72478,381.97162 L 549.09011,381.97162 L 549.09011,359.45843 z"
           id="path3247" />
        <path
           style="fill:#000000;fill-opacity:1;stroke:#000000;stroke-opacity:1"
           d="M 502.73766,370.69825 C 502.73766,364.04381 507.86888,359.17686 514.32512,359.17686 C 518.39769,359.17686 521.31094,360.63296 523.33071,363.77849 L 519.78773,366.29481 C 518.72803,364.57287 516.90751,363.34801 514.32512,363.34801 C 510.25255,363.34801 507.50499,366.49354 507.50499,370.69825 C 507.50499,374.90295 510.25255,378.11455 514.32512,378.11455 C 517.23889,378.11455 518.86069,376.724 520.11911,374.80385 L 523.72816,377.28662 C 521.77446,380.33305 518.66249,382.25319 514.32512,382.25319 C 507.86941,382.25267 502.73766,377.35321 502.73766,370.69825 z"
           id="path3249" />
        <path
           style="fill:#000000;fill-opacity:1;stroke:#000000;stroke-opacity:1"
           d="M 591.6007,371.50967 C 590.47546,370.44997 588.91921,368.43072 588.91921,368.43072 C 588.91921,368.43072 589.2506,370.91349 589.2506,372.53581 L 589.2506,381.97136 L 584.91376,381.97136 L 584.91376,359.25996 L 585.37728,359.25996 L 596.73297,369.92038 C 597.8257,370.94652 599.38143,372.99933 599.38143,372.99933 C 599.38143,372.99933 599.0836,370.45049 599.0836,368.89424 L 599.0836,359.45869 L 603.42044,359.45869 L 603.42044,382.17009 L 602.95693,382.17009 L 591.6007,371.50967 z"
           id="path3251" />
        <path
           style="fill:#000000;fill-opacity:1;stroke:#000000;stroke-opacity:1"
           id="path3253"
           d="M 438.37455,370.71503 C 438.37455,364.06059 443.53985,359.1606 450.02912,359.1606 C 456.51787,359.1606 461.68265,364.06059 461.68265,370.71503 C 461.68265,377.36946 456.51787,382.26945 450.02912,382.26945 C 443.53985,382.26945 438.37455,377.36999 438.37455,370.71503 z M 456.91532,370.71503 C 456.91532,366.51032 454.13421,363.29872 450.02912,363.29872 C 445.92352,363.29872 443.1424,366.51032 443.1424,370.71503 C 443.1424,374.91973 445.92352,378.13133 450.02912,378.13133 C 454.13421,378.13133 456.91532,374.91973 456.91532,370.71503 z" />
        <path
           style="fill:#000000;fill-opacity:1;stroke:#000000;stroke-opacity:1"
           d="M 557.66522,370.71503 C 557.66522,364.06059 562.83052,359.1606 569.31979,359.1606 C 575.80854,359.1606 580.97332,364.06059 580.97332,370.71503 C 580.97332,377.36946 575.80854,382.26945 569.31979,382.26945 C 562.83052,382.26945 557.66522,377.36999 557.66522,370.71503 z M 576.20599,370.71503 C 576.20599,366.51032 573.42488,363.29872 569.31979,363.29872 C 565.21419,363.29872 562.43307,366.51032 562.43307,370.71503 C 562.43307,374.91973 565.21419,378.13133 569.31979,378.13133 C 573.42488,378.13133 576.20599,374.91973 576.20599,370.71503 z"
           id="path3255" />
      </g>
      <g
         id="g4137"
         transform="translate(4.4621514,71.394422)"
         style="fill:#000d26;fill-opacity:1;stroke:#cdcdff;stroke-opacity:1">
        <path
           d="M 22.673731,370.71529 C 22.673731,364.06085 27.839035,359.16086 34.328304,359.16086 C 40.81705,359.16086 45.981829,364.06085 45.981829,370.71529 C 45.981829,377.36973 40.81705,382.26971 34.328304,382.26971 C 27.839035,382.26971 22.673731,377.37025 22.673731,370.71529 z M 41.214502,370.71529 C 41.214502,366.51058 38.433386,363.29898 34.328304,363.29898 C 30.222698,363.29898 27.441583,366.51058 27.441583,370.71529 C 27.441583,374.91999 30.222698,378.1316 34.328304,378.1316 C 38.433386,378.1316 41.214502,374.91999 41.214502,370.71529 z"
           id="path4139"
           style="fill:#000d26;fill-opacity:1;stroke:#cdcdff;stroke-opacity:1" />
        <path
           d="M 49.922267,359.45869 L 56.146219,359.45869 C 62.436763,359.45869 66.21046,362.73583 66.21046,368.16541 C 66.21046,373.59498 62.403205,376.83961 56.146219,376.83961 L 54.556936,376.83961 L 54.556936,381.97136 L 49.922267,381.97136 L 49.922267,359.45869 z M 56.013561,372.76809 C 59.787782,372.76809 61.443133,371.2454 61.443133,368.16593 C 61.443133,365.05343 59.721715,363.53074 56.013561,363.53074 L 54.556936,363.53074 L 54.556936,372.76809 L 56.013561,372.76809 L 56.013561,372.76809 z"
           id="path4141"
           style="fill:#000d26;fill-opacity:1;stroke:#cdcdff;stroke-opacity:1" />
        <path
           d="M 70.150962,359.45843 L 85.049122,359.45843 L 85.049122,363.53048 L 74.785631,363.53048 L 74.785631,370.68199 L 83.824257,370.68199 L 83.824257,374.65494 L 74.785631,374.65494 L 74.785631,377.89957 L 85.512641,377.89957 L 85.512641,381.97162 L 70.150962,381.97162 L 70.150962,359.45843 z"
           id="path4143"
           style="fill:#000d26;fill-opacity:1;stroke:#cdcdff;stroke-opacity:1" />
        <path
           d="M 209.80292,381.97162 L 204.43941,381.97162 L 200.73126,376.27726 C 200.3013,376.34332 199.83778,376.37636 199.40729,376.37636 L 197.81801,376.37636 L 197.81801,381.97162 L 193.18334,381.97162 L 193.18334,359.45843 L 199.40729,359.45843 C 205.69784,359.45843 209.47153,362.4713 209.47153,367.96694 C 209.47153,371.47637 207.91581,373.69487 205.13469,374.95277 L 209.80292,381.97162 z M 199.27463,372.33734 C 203.04886,372.33734 204.70421,371.14604 204.70421,367.96694 C 204.70421,364.7889 202.98279,363.53048 199.27463,363.53048 L 197.81801,363.53048 L 197.81801,372.33734 L 199.27463,372.33734 z"
           id="path4145"
           style="fill:#000d26;fill-opacity:1;stroke:#cdcdff;stroke-opacity:1" />
        <path
           d="M 534.09128,363.53048 L 527.6686,363.53048 L 527.6686,359.45843 L 545.14968,359.45843 L 545.14968,363.53048 L 538.72647,363.53048 L 538.72647,381.97162 L 534.09128,381.97162 L 534.09128,363.53048 z"
           id="path4147"
           style="fill:#000d26;fill-opacity:1;stroke:#cdcdff;stroke-opacity:1" />
        <path
           d="M 295.01444,374.82011 L 286.47289,359.45843 L 291.60463,359.45843 L 295.57706,366.70904 C 296.43803,368.2978 297.3981,370.97982 297.3981,370.97982 C 297.3981,370.97982 298.2921,368.33136 299.15308,366.70904 L 302.96086,359.45843 L 307.69462,359.45843 L 299.68319,374.48925 L 299.68319,381.97162 L 295.01496,381.97162 L 295.01496,374.82011 L 295.01444,374.82011 z"
           id="path4149"
           style="fill:#000d26;fill-opacity:1;stroke:#cdcdff;stroke-opacity:1" />
        <path
           d="M 171.03352,373.67756 L 171.03352,359.30951 L 175.66819,359.30951 L 175.66819,373.41329 C 175.66819,376.69044 177.0923,377.94834 180.17124,377.94834 C 183.21715,377.94834 184.60771,376.69044 184.60771,373.41329 L 184.60771,359.30951 L 189.2429,359.30951 L 189.2429,373.67756 C 189.2429,379.37193 185.30247,382.12054 180.17124,382.12054 C 174.97291,382.12001 171.03352,379.37193 171.03352,373.67756 z"
           id="path4151"
           style="fill:#000d26;fill-opacity:1;stroke:#cdcdff;stroke-opacity:1" />
        <path
           d="M 332.19508,359.45843 L 336.82975,359.45843 L 336.82975,381.97162 L 332.19508,381.97162 L 332.19508,359.45843 z"
           id="path4153"
           style="fill:#000d26;fill-opacity:1;stroke:#cdcdff;stroke-opacity:1" />
        <path
           d="M 123.72152,377.51864 L 127.49574,375.3337 C 128.48885,376.95602 129.77978,378.14785 132.06434,378.14785 C 133.98448,378.14785 135.20987,377.18778 135.20987,375.86329 C 135.20987,374.27453 133.95198,373.71138 131.83311,372.78435 L 130.67431,372.28779 C 127.33005,370.8642 125.11208,369.07672 125.11208,365.30249 C 125.11208,361.8261 127.76106,359.17712 131.89917,359.17712 C 134.84546,359.17712 136.96433,360.20378 138.48754,362.88527 L 134.87849,365.20287 C 134.08359,363.77928 133.22314,363.21666 131.89865,363.21666 C 130.54112,363.21666 129.68068,364.07763 129.68068,365.20287 C 129.68068,366.59343 130.54165,367.15657 132.52786,368.01702 L 133.68666,368.51357 C 137.62657,370.20196 139.84454,371.92337 139.84454,375.79722 C 139.84454,379.96889 136.5674,382.25293 132.16397,382.25293 C 127.86016,382.25293 125.07904,380.20013 123.72152,377.51864 z"
           id="path4155"
           style="fill:#000d26;fill-opacity:1;stroke:#cdcdff;stroke-opacity:1" />
        <path
           d="M 465.62309,377.8828 L 469.39678,375.59876 C 470.12562,376.88969 470.78734,377.98242 472.37663,377.98242 C 473.89984,377.98242 474.85991,377.38624 474.85991,375.06865 L 474.85991,359.30951 L 479.49511,359.30951 L 479.49511,375.13471 C 479.49511,379.9356 476.68096,382.12054 472.57535,382.12054 C 468.8672,382.12054 466.71529,380.20039 465.62309,377.8828 z"
           id="path4157"
           style="fill:#000d26;fill-opacity:1;stroke:#cdcdff;stroke-opacity:1" />
        <path
           d="M 269.79773,359.45843 L 274.4324,359.45843 L 274.4324,377.89905 L 284.62982,377.89905 L 284.62982,381.97162 L 269.79773,381.97162 L 269.79773,359.45843 z"
           id="path4159"
           style="fill:#000d26;fill-opacity:1;stroke:#cdcdff;stroke-opacity:1" />
        <path
           d="M 213.74336,370.69825 C 213.74336,364.04381 218.87458,359.17686 225.33082,359.17686 C 229.40339,359.17686 232.31664,360.63296 234.33641,363.77849 L 230.79342,366.29481 C 229.73372,364.57287 227.9132,363.34801 225.33082,363.34801 C 221.25824,363.34801 218.51068,366.49354 218.51068,370.69825 C 218.51068,374.90295 221.25824,378.11455 225.33082,378.11455 C 228.24459,378.11455 229.86638,376.724 231.12481,374.80385 L 234.73386,377.28662 C 232.78016,380.33305 229.66818,382.25319 225.33082,382.25319 C 218.8751,382.25267 213.74336,377.35321 213.74336,370.69825 z"
           id="path4161"
           style="fill:#000d26;fill-opacity:1;stroke:#cdcdff;stroke-opacity:1" />
        <path
           d="M 96.140027,371.50967 C 95.014786,370.44997 93.458536,368.43072 93.458536,368.43072 C 93.458536,368.43072 93.789921,370.91349 93.789921,372.53581 L 93.789921,381.97136 L 89.45308,381.97136 L 89.45308,359.25996 L 89.916599,359.25996 L 101.2723,369.92038 C 102.36503,370.94652 103.92075,372.99933 103.92075,372.99933 C 103.92075,372.99933 103.62293,370.45049 103.62293,368.89424 L 103.62293,359.45869 L 107.95977,359.45869 L 107.95977,382.17009 L 107.49625,382.17009 L 96.140027,371.50967 z"
           id="path4163"
           style="fill:#000d26;fill-opacity:1;stroke:#cdcdff;stroke-opacity:1" />
        <path
           id="path4165"
           d="M 143.78498,370.71503 C 143.78498,364.06059 148.95028,359.1606 155.43955,359.1606 C 161.9283,359.1606 167.09308,364.06059 167.09308,370.71503 C 167.09308,377.36946 161.9283,382.26945 155.43955,382.26945 C 148.95028,382.26945 143.78498,377.36999 143.78498,370.71503 z M 162.32575,370.71503 C 162.32575,366.51032 159.54464,363.29872 155.43955,363.29872 C 151.33395,363.29872 148.55283,366.51032 148.55283,370.71503 C 148.55283,374.91973 151.33395,378.13133 155.43955,378.13133 C 159.54464,378.13133 162.32575,374.91973 162.32575,370.71503 z"
           style="fill:#000d26;fill-opacity:1;stroke:#cdcdff;stroke-opacity:1" />
        <path
           id="path4167"
           d="M 238.6743,359.45843 L 253.57246,359.45843 L 253.57246,363.53048 L 243.30897,363.53048 L 243.30897,370.68199 L 252.34759,370.68199 L 252.34759,374.65494 L 243.30897,374.65494 L 243.30897,377.89957 L 254.03598,377.89957 L 254.03598,381.97162 L 238.6743,381.97162 L 238.6743,359.45843 z"
           style="fill:#000d26;fill-opacity:1;stroke:#cdcdff;stroke-opacity:1" />
        <path
           id="path4169"
           d="M 328.25464,381.97162 L 322.89114,381.97162 L 319.18298,376.27726 C 318.75302,376.34332 318.2895,376.37636 317.85901,376.37636 L 316.26973,376.37636 L 316.26973,381.97162 L 311.63506,381.97162 L 311.63506,359.45843 L 317.85901,359.45843 C 324.14956,359.45843 327.92326,362.4713 327.92326,367.96694 C 327.92326,371.47637 326.36753,373.69487 323.58641,374.95277 L 328.25464,381.97162 z M 317.72636,372.33734 C 321.50058,372.33734 323.15593,371.14604 323.15593,367.96694 C 323.15593,364.7889 321.43451,363.53048 317.72636,363.53048 L 316.26973,363.53048 L 316.26973,372.33734 L 317.72636,372.33734 z"
           style="fill:#000d26;fill-opacity:1;stroke:#cdcdff;stroke-opacity:1" />
        <path
           id="path4171"
           d="M 365.70113,377.51864 L 369.47535,375.3337 C 370.46845,376.95602 371.75938,378.14785 374.04395,378.14785 C 375.96409,378.14785 377.18948,377.18778 377.18948,375.86329 C 377.18948,374.27453 375.93158,373.71138 373.81271,372.78435 L 372.65391,372.28779 C 369.30965,370.8642 367.09168,369.07672 367.09168,365.30249 C 367.09168,361.8261 369.74066,359.17712 373.87878,359.17712 C 376.82506,359.17712 378.94393,360.20378 380.46715,362.88527 L 376.8581,365.20287 C 376.06319,363.77928 375.20275,363.21666 373.87826,363.21666 C 372.52073,363.21666 371.66028,364.07763 371.66028,365.20287 C 371.66028,366.59343 372.52126,367.15657 374.50747,368.01702 L 375.66627,368.51357 C 379.60618,370.20196 381.82415,371.92337 381.82415,375.79722 C 381.82415,379.96889 378.54701,382.25293 374.14357,382.25293 C 369.83976,382.25293 367.05865,380.20013 365.70113,377.51864 z"
           style="fill:#000d26;fill-opacity:1;stroke:#cdcdff;stroke-opacity:1" />
        <path
           id="path4173"
           d="M 340.77019,370.69825 C 340.77019,364.04381 345.90141,359.17686 352.35764,359.17686 C 356.43022,359.17686 359.34347,360.63296 361.36323,363.77849 L 357.82025,366.29481 C 356.76055,364.57287 354.94003,363.34801 352.35764,363.34801 C 348.28507,363.34801 345.53751,366.49354 345.53751,370.69825 C 345.53751,374.90295 348.28507,378.11455 352.35764,378.11455 C 355.27142,378.11455 356.89321,376.724 358.15163,374.80385 L 361.76069,377.28662 C 359.80698,380.33305 356.69501,382.25319 352.35764,382.25319 C 345.90193,382.25267 340.77019,377.35321 340.77019,370.69825 z"
           style="fill:#000d26;fill-opacity:1;stroke:#cdcdff;stroke-opacity:1" />
        <path
           id="path4175"
           d="M 397.5859,359.45869 L 403.80985,359.45869 C 410.1004,359.45869 413.8741,362.73583 413.8741,368.16541 C 413.8741,373.59498 410.06684,376.83961 403.80985,376.83961 L 402.22057,376.83961 L 402.22057,381.97136 L 397.5859,381.97136 L 397.5859,359.45869 z M 403.6772,372.76809 C 407.45142,372.76809 409.10677,371.2454 409.10677,368.16593 C 409.10677,365.05343 407.38535,363.53074 403.6772,363.53074 L 402.22057,363.53074 L 402.22057,372.76809 L 403.6772,372.76809 L 403.6772,372.76809 z"
           style="fill:#000d26;fill-opacity:1;stroke:#cdcdff;stroke-opacity:1" />
        <path
           id="path4177"
           d="M 483.43554,359.45843 L 498.33371,359.45843 L 498.33371,363.53048 L 488.07021,363.53048 L 488.07021,370.68199 L 497.10884,370.68199 L 497.10884,374.65494 L 488.07021,374.65494 L 488.07021,377.89957 L 498.79723,377.89957 L 498.79723,381.97162 L 483.43554,381.97162 L 483.43554,359.45843 z"
           style="fill:#000d26;fill-opacity:1;stroke:#cdcdff;stroke-opacity:1" />
        <path
           id="path4179"
           d="M 434.43411,381.97162 L 429.07061,381.97162 L 425.36245,376.27726 C 424.93249,376.34332 424.46897,376.37636 424.03849,376.37636 L 422.4492,376.37636 L 422.4492,381.97162 L 417.81453,381.97162 L 417.81453,359.45843 L 424.03849,359.45843 C 430.32903,359.45843 434.10273,362.4713 434.10273,367.96694 C 434.10273,371.47637 432.547,373.69487 429.76589,374.95277 L 434.43411,381.97162 z M 423.90583,372.33734 C 427.68005,372.33734 429.3354,371.14604 429.3354,367.96694 C 429.3354,364.7889 427.61398,363.53048 423.90583,363.53048 L 422.4492,363.53048 L 422.4492,372.33734 L 423.90583,372.33734 z"
           style="fill:#000d26;fill-opacity:1;stroke:#cdcdff;stroke-opacity:1" />
        <path
           id="path4181"
           d="M 549.09011,359.45843 L 553.72478,359.45843 L 553.72478,381.97162 L 549.09011,381.97162 L 549.09011,359.45843 z"
           style="fill:#000d26;fill-opacity:1;stroke:#cdcdff;stroke-opacity:1" />
        <path
           id="path4183"
           d="M 502.73766,370.69825 C 502.73766,364.04381 507.86888,359.17686 514.32512,359.17686 C 518.39769,359.17686 521.31094,360.63296 523.33071,363.77849 L 519.78773,366.29481 C 518.72803,364.57287 516.90751,363.34801 514.32512,363.34801 C 510.25255,363.34801 507.50499,366.49354 507.50499,370.69825 C 507.50499,374.90295 510.25255,378.11455 514.32512,378.11455 C 517.23889,378.11455 518.86069,376.724 520.11911,374.80385 L 523.72816,377.28662 C 521.77446,380.33305 518.66249,382.25319 514.32512,382.25319 C 507.86941,382.25267 502.73766,377.35321 502.73766,370.69825 z"
           style="fill:#000d26;fill-opacity:1;stroke:#cdcdff;stroke-opacity:1" />
        <path
           id="path4185"
           d="M 591.6007,371.50967 C 590.47546,370.44997 588.91921,368.43072 588.91921,368.43072 C 588.91921,368.43072 589.2506,370.91349 589.2506,372.53581 L 589.2506,381.97136 L 584.91376,381.97136 L 584.91376,359.25996 L 585.37728,359.25996 L 596.73297,369.92038 C 597.8257,370.94652 599.38143,372.99933 599.38143,372.99933 C 599.38143,372.99933 599.0836,370.45049 599.0836,368.89424 L 599.0836,359.45869 L 603.42044,359.45869 L 603.42044,382.17009 L 602.95693,382.17009 L 591.6007,371.50967 z"
           style="fill:#000d26;fill-opacity:1;stroke:#cdcdff;stroke-opacity:1" />
        <path
           d="M 438.37455,370.71503 C 438.37455,364.06059 443.53985,359.1606 450.02912,359.1606 C 456.51787,359.1606 461.68265,364.06059 461.68265,370.71503 C 461.68265,377.36946 456.51787,382.26945 450.02912,382.26945 C 443.53985,382.26945 438.37455,377.36999 438.37455,370.71503 z M 456.91532,370.71503 C 456.91532,366.51032 454.13421,363.29872 450.02912,363.29872 C 445.92352,363.29872 443.1424,366.51032 443.1424,370.71503 C 443.1424,374.91973 445.92352,378.13133 450.02912,378.13133 C 454.13421,378.13133 456.91532,374.91973 456.91532,370.71503 z"
           id="path4187"
           style="fill:#000d26;fill-opacity:1;stroke:#cdcdff;stroke-opacity:1" />
        <path
           id="path4189"
           d="M 557.66522,370.71503 C 557.66522,364.06059 562.83052,359.1606 569.31979,359.1606 C 575.80854,359.1606 580.97332,364.06059 580.97332,370.71503 C 580.97332,377.36946 575.80854,382.26945 569.31979,382.26945 C 562.83052,382.26945 557.66522,377.36999 557.66522,370.71503 z M 576.20599,370.71503 C 576.20599,366.51032 573.42488,363.29872 569.31979,363.29872 C 565.21419,363.29872 562.43307,366.51032 562.43307,370.71503 C 562.43307,374.91973 565.21419,378.13133 569.31979,378.13133 C 573.42488,378.13133 576.20599,374.91973 576.20599,370.71503 z"
           style="fill:#000d26;fill-opacity:1;stroke:#cdcdff;stroke-opacity:1" />
      </g>
    </g>
  </g>
</svg>
